# xmcd CD database file
#
# Track frame offsets:
#	150
#	5074
#	31304
#	47031
#	75603
#	93141
#	116273
#	131578
#	153180
#	179749
#	211822
#
# Disc length: 3080 seconds
#
# Revision: 0
# Processed by: cddbd v1.5.2PL0 Copyright (c) Steve Scherf et al.
# Submitted via: CDex 1.51
#
DISCID=830c060b
DTITLE=Emmylou Harris and Friends - Sessions At West 54th
DYEAR=1999
DGENRE=Country
TTITLE0=Introduction
TTITLE1=Return Of The Grievous Angel
TTITLE2=High Fashion Queen
TTITLE3=Hickory Wind
TTITLE4=Hot Burrito #1
TTITLE5=Sin City
TTITLE6=100 Years From Now
TTITLE7=Juanita
TTITLE8=Wheels
TTITLE9=A Song For You
TTITLE10=In My Hour Of Darkness
EXTD=YEAR: 1999
EXTT0=
EXTT1=
EXTT2=
EXTT3=
EXTT4=
EXTT5=
EXTT6=
EXTT7=
EXTT8=
EXTT9=
EXTT10=
PLAYORDER=
